# Created by Kenney (www.kenney.nl)

mtllib Base.mtl

g mergedBlocks

v 0.5 -1.127986E-18 0.5
v 0.5 -1.127986E-18 -0.5
v -0.5 -1.127986E-18 0.5
v -0.5 -1.127986E-18 -0.5
v 0.05 0.2 -0.05
v 0.05 0.2 0.05
v -0.05 0.2 -0.05
v -0.05 0.2 0.05
v -0.5 0.04 -0.5
v -0.5 0.04 0.5
v 0.5 0.04 0.5
v 0.5 0.04 -0.5

vn 0 -1 0
vn 0 1 0
vn -1 0 0
vn 0 0 1
vn 1 0 0
vn 0 0 -1
vn 0.3350097 0.9422147 0
vn 0 0.9422147 0.3350097
vn 0 0.9422147 -0.3350097
vn -0.3350097 0.9422147 0

vt -0.5 -0.5
vt -0.5 0.5
vt 0.5 -0.5
vt 0.5 0.5
vt -0.05 -0.05
vt -0.05 0.05
vt 0.05 -0.05
vt 0.05 0.05
vt -0.5 -1.127986E-18
vt -0.5 0.04
vt 0.5 -1.127986E-18
vt 0.5 0.04

usemtl stone

f 3/3/1 2/2/1 1/1/1
f 2/2/1 3/3/1 4/4/1
f 7/7/2 6/6/2 5/5/2
f 6/6/2 7/7/2 8/8/2
f 3/11/3 9/10/3 4/9/3
f 9/10/3 3/11/3 10/12/3
f 11/12/4 3/9/4 1/11/4
f 3/9/4 11/12/4 10/10/4
f 12/12/5 1/9/5 2/11/5
f 1/9/5 12/12/5 11/10/5
f 9/12/6 2/9/6 4/11/6
f 2/9/6 9/12/6 12/10/6
f 5/5/7 11/2/7 12/1/7
f 11/2/7 5/5/7 6/6/7
f 6/6/8 10/4/8 11/2/8
f 10/4/8 6/6/8 8/8/8
f 7/7/9 12/1/9 9/3/9
f 12/1/9 7/7/9 5/5/9
f 10/4/10 7/7/10 9/3/10
f 7/7/10 10/4/10 8/8/10

